<svg width="17" height="16" viewBox="0 0 17 16" fill="none" xmlns="http://www.w3.org/2000/svg">
<path d="M5.50001 5.83331C5.37335 5.83331 5.24668 5.87998 5.14668 5.97998C4.95335 6.17331 4.95335 6.49331 5.14668 6.68664L7.28001 8.81998C7.38668 8.92664 7.52668 8.97998 7.68001 8.96665C7.82668 8.95331 7.96001 8.87331 8.04668 8.74665L8.77335 7.65331L11.14 10.02C11.3333 10.2133 11.6533 10.2133 11.8467 10.02C12.04 9.82665 12.04 9.50665 11.8467 9.31331L9.04668 6.51331C8.94001 6.40665 8.80001 6.35331 8.64668 6.36665C8.50001 6.37998 8.36668 6.45998 8.28001 6.58665L7.55335 7.67998L5.85335 5.97998C5.75335 5.87998 5.62668 5.83331 5.50001 5.83331Z" fill="#740000"/>
<path d="M11.5 7.83335C11.2267 7.83335 11 8.06002 11 8.33335L11 9.16669L10.1667 9.16669C9.89332 9.16669 9.66666 9.39335 9.66666 9.66669C9.66666 9.94002 9.89332 10.1667 10.1667 10.1667L11.5 10.1667C11.7733 10.1667 12 9.94002 12 9.66669L12 8.33335C12 8.06002 11.7733 7.83335 11.5 7.83335Z" fill="#740000"/>
<path d="M10.5 0.833354L6.50001 0.833354C2.88001 0.833353 1.33334 2.38002 1.33334 6.00002L1.33334 10C1.33334 13.62 2.88001 15.1667 6.50001 15.1667L10.5 15.1667C14.12 15.1667 15.6667 13.62 15.6667 10L15.6667 6.00002C15.6667 2.38002 14.12 0.833354 10.5 0.833354ZM6.50001 14.1667C3.42668 14.1667 2.33334 13.0734 2.33334 10L2.33334 6.00002C2.33334 2.92669 3.42668 1.83335 6.50001 1.83335L10.5 1.83335C13.5733 1.83335 14.6667 2.92669 14.6667 6.00002L14.6667 10C14.6667 13.0734 13.5733 14.1667 10.5 14.1667L6.50001 14.1667Z" fill="#740000"/>
</svg>
