<svg width="16" height="16" viewBox="0 0 16 16" fill="none" xmlns="http://www.w3.org/2000/svg">
<path d="M5 10.1667C4.87333 10.1667 4.74667 10.12 4.64667 10.02C4.45333 9.82669 4.45333 9.50669 4.64667 9.31336L6.78 7.18002C6.88667 7.07336 7.02667 7.02002 7.18 7.03336C7.32667 7.04669 7.46 7.12669 7.54667 7.25336L8.27333 8.34669L10.64 5.98002C10.8333 5.78669 11.1533 5.78669 11.3467 5.98002C11.54 6.17336 11.54 6.49335 11.3467 6.68669L8.54667 9.48669C8.44 9.59335 8.3 9.64669 8.14667 9.63335C8 9.62002 7.86667 9.54002 7.78 9.41335L7.05333 8.32002L5.35333 10.02C5.25333 10.12 5.12667 10.1667 5 10.1667Z" fill="#037400"/>
<path d="M11 8.16665C10.7267 8.16665 10.5 7.93998 10.5 7.66665V6.83331H9.66667C9.39333 6.83331 9.16667 6.60665 9.16667 6.33331C9.16667 6.05998 9.39333 5.83331 9.66667 5.83331H11C11.2733 5.83331 11.5 6.05998 11.5 6.33331V7.66665C11.5 7.93998 11.2733 8.16665 11 8.16665Z" fill="#037400"/>
<path d="M10 15.1666H6C2.38 15.1666 0.833332 13.62 0.833332 9.99998V5.99998C0.833332 2.37998 2.38 0.833313 6 0.833313H10C13.62 0.833313 15.1667 2.37998 15.1667 5.99998V9.99998C15.1667 13.62 13.62 15.1666 10 15.1666ZM6 1.83331C2.92667 1.83331 1.83333 2.92665 1.83333 5.99998V9.99998C1.83333 13.0733 2.92667 14.1666 6 14.1666H10C13.0733 14.1666 14.1667 13.0733 14.1667 9.99998V5.99998C14.1667 2.92665 13.0733 1.83331 10 1.83331H6Z" fill="#037400"/>
</svg>
